{
    "asset" : {
        "generator" : "Khronos glTF Blender I/O v3.2.43",
        "version" : "2.0"
    },
    "scene" : 0,
    "scenes" : [
        {
            "name" : "Scene",
            "nodes" : [
                5,
                6
            ]
        }
    ],
    "nodes" : [
        {
            "name" : "Lid.Top",
            "rotation" : [
                -0.006587190553545952,
                0.006586994044482708,
                -0.7070761322975159,
                0.7070761322975159
            ],
            "translation" : [
                -0.03737293928861618,
                0.014689862728118896,
                0.0006963908090256155
            ]
        },
        {
            "children" : [
                0
            ],
            "name" : "Lid.Bottom",
            "rotation" : [
                0.5046361088752747,
                0.49532055854797363,
                0.49532052874565125,
                0.5046360492706299
            ],
            "translation" : [
                2.0689023827458186e-08,
                0,
                0.28905370831489563
            ]
        },
        {
            "name" : "Bottle",
            "rotation" : [
                0.4999999403953552,
                0.5000000596046448,
                0.5000000596046448,
                0.4999999403953552
            ],
            "scale" : [
                1,
                0.9999999403953552,
                1
            ],
            "translation" : [
                0,
                0,
                0.043381430208683014
            ]
        },
        {
            "name" : "Device",
            "rotation" : [
                0.4999999403953552,
                0.5000000596046448,
                0.5000000596046448,
                0.4999999403953552
            ],
            "scale" : [
                1,
                0.9999999403953552,
                1
            ],
            "translation" : [
                0,
                0,
                -0.003980397246778011
            ]
        },
        {
            "children" : [
                1,
                2,
                3
            ],
            "name" : "Anchor",
            "rotation" : [
                -0.5,
                -0.5,
                -0.5,
                0.5
            ]
        },
        {
            "mesh" : 0,
            "name" : "Bottle",
            "skin" : 0
        },
        {
            "children" : [
                4
            ],
            "name" : "Armature"
        }
    ],
    "animations" : [
        {
            "channels" : [
                {
                    "sampler" : 0,
                    "target" : {
                        "node" : 4,
                        "path" : "translation"
                    }
                },
                {
                    "sampler" : 1,
                    "target" : {
                        "node" : 4,
                        "path" : "rotation"
                    }
                },
                {
                    "sampler" : 2,
                    "target" : {
                        "node" : 4,
                        "path" : "scale"
                    }
                },
                {
                    "sampler" : 3,
                    "target" : {
                        "node" : 1,
                        "path" : "translation"
                    }
                },
                {
                    "sampler" : 4,
                    "target" : {
                        "node" : 1,
                        "path" : "rotation"
                    }
                },
                {
                    "sampler" : 5,
                    "target" : {
                        "node" : 1,
                        "path" : "scale"
                    }
                },
                {
                    "sampler" : 6,
                    "target" : {
                        "node" : 0,
                        "path" : "translation"
                    }
                },
                {
                    "sampler" : 7,
                    "target" : {
                        "node" : 0,
                        "path" : "rotation"
                    }
                },
                {
                    "sampler" : 8,
                    "target" : {
                        "node" : 0,
                        "path" : "scale"
                    }
                },
                {
                    "sampler" : 9,
                    "target" : {
                        "node" : 2,
                        "path" : "translation"
                    }
                },
                {
                    "sampler" : 10,
                    "target" : {
                        "node" : 2,
                        "path" : "rotation"
                    }
                },
                {
                    "sampler" : 11,
                    "target" : {
                        "node" : 2,
                        "path" : "scale"
                    }
                },
                {
                    "sampler" : 12,
                    "target" : {
                        "node" : 3,
                        "path" : "translation"
                    }
                },
                {
                    "sampler" : 13,
                    "target" : {
                        "node" : 3,
                        "path" : "rotation"
                    }
                },
                {
                    "sampler" : 14,
                    "target" : {
                        "node" : 3,
                        "path" : "scale"
                    }
                }
            ],
            "name" : "BottleAnimation",
            "samplers" : [
                {
                    "input" : 19,
                    "interpolation" : "LINEAR",
                    "output" : 20
                },
                {
                    "input" : 19,
                    "interpolation" : "LINEAR",
                    "output" : 21
                },
                {
                    "input" : 19,
                    "interpolation" : "LINEAR",
                    "output" : 22
                },
                {
                    "input" : 19,
                    "interpolation" : "LINEAR",
                    "output" : 23
                },
                {
                    "input" : 19,
                    "interpolation" : "LINEAR",
                    "output" : 24
                },
                {
                    "input" : 19,
                    "interpolation" : "LINEAR",
                    "output" : 25
                },
                {
                    "input" : 19,
                    "interpolation" : "LINEAR",
                    "output" : 26
                },
                {
                    "input" : 19,
                    "interpolation" : "LINEAR",
                    "output" : 27
                },
                {
                    "input" : 19,
                    "interpolation" : "LINEAR",
                    "output" : 28
                },
                {
                    "input" : 19,
                    "interpolation" : "LINEAR",
                    "output" : 29
                },
                {
                    "input" : 19,
                    "interpolation" : "LINEAR",
                    "output" : 30
                },
                {
                    "input" : 19,
                    "interpolation" : "LINEAR",
                    "output" : 31
                },
                {
                    "input" : 19,
                    "interpolation" : "LINEAR",
                    "output" : 32
                },
                {
                    "input" : 19,
                    "interpolation" : "LINEAR",
                    "output" : 33
                },
                {
                    "input" : 19,
                    "interpolation" : "LINEAR",
                    "output" : 34
                }
            ]
        }
    ],
    "materials" : [
        {
            "doubleSided" : true,
            "emissiveFactor" : [
                1,
                1,
                1
            ],
            "emissiveTexture" : {
                "index" : 0
            },
            "name" : "Bottle",
            "normalTexture" : {
                "index" : 1
            },
            "pbrMetallicRoughness" : {
                "baseColorTexture" : {
                    "index" : 2
                },
                "metallicRoughnessTexture" : {
                    "index" : 3
                }
            }
        },
        {
            "doubleSided" : true,
            "emissiveFactor" : [
                1,
                1,
                1
            ],
            "emissiveTexture" : {
                "index" : 4
            },
            "name" : "Device",
            "normalTexture" : {
                "index" : 5
            },
            "pbrMetallicRoughness" : {
                "baseColorTexture" : {
                    "index" : 6
                },
                "metallicRoughnessTexture" : {
                    "index" : 7
                }
            }
        },
        {
            "doubleSided" : true,
            "emissiveFactor" : [
                1,
                1,
                1
            ],
            "emissiveTexture" : {
                "index" : 8
            },
            "name" : "Lid",
            "normalTexture" : {
                "index" : 9
            },
            "pbrMetallicRoughness" : {
                "baseColorTexture" : {
                    "index" : 10
                },
                "metallicRoughnessTexture" : {
                    "index" : 11
                }
            }
        }
    ],
    "meshes" : [
        {
            "name" : "Cylinder.001",
            "primitives" : [
                {
                    "attributes" : {
                        "POSITION" : 0,
                        "NORMAL" : 1,
                        "TEXCOORD_0" : 2,
                        "JOINTS_0" : 3,
                        "WEIGHTS_0" : 4
                    },
                    "indices" : 5,
                    "material" : 0
                },
                {
                    "attributes" : {
                        "POSITION" : 6,
                        "NORMAL" : 7,
                        "TEXCOORD_0" : 8,
                        "JOINTS_0" : 9,
                        "WEIGHTS_0" : 10
                    },
                    "indices" : 11,
                    "material" : 1
                },
                {
                    "attributes" : {
                        "POSITION" : 12,
                        "NORMAL" : 13,
                        "TEXCOORD_0" : 14,
                        "JOINTS_0" : 15,
                        "WEIGHTS_0" : 16
                    },
                    "indices" : 17,
                    "material" : 2
                }
            ]
        }
    ],
    "textures" : [
        {
            "sampler" : 0,
            "source" : 0
        },
        {
            "sampler" : 0,
            "source" : 1
        },
        {
            "sampler" : 0,
            "source" : 2
        },
        {
            "sampler" : 0,
            "source" : 3
        },
        {
            "sampler" : 0,
            "source" : 4
        },
        {
            "sampler" : 0,
            "source" : 5
        },
        {
            "sampler" : 0,
            "source" : 6
        },
        {
            "sampler" : 0,
            "source" : 7
        },
        {
            "sampler" : 0,
            "source" : 8
        },
        {
            "sampler" : 0,
            "source" : 9
        },
        {
            "sampler" : 0,
            "source" : 10
        },
        {
            "sampler" : 0,
            "source" : 11
        }
    ],
    "images" : [
        {
            "mimeType" : "image/png",
            "name" : "Bottle_Bottle_Emissive",
            "uri" : "Bottle_Bottle_Emissive.png"
        },
        {
            "mimeType" : "image/png",
            "name" : "Bottle_Bottle_Normal",
            "uri" : "Bottle_Bottle_Normal.png"
        },
        {
            "mimeType" : "image/png",
            "name" : "Bottle_Bottle_BaseColor",
            "uri" : "Bottle_Bottle_BaseColor.png"
        },
        {
            "mimeType" : "image/png",
            "name" : "Bottle_Bottle_Metallic-Bottle_Bottle_Roughness",
            "uri" : "Bottle_Bottle_Metallic-Bottle_Bottle_Roughness.png"
        },
        {
            "mimeType" : "image/png",
            "name" : "Bottle_Device_Emissive.png",
            "uri" : "Bottle_Device_Emissive_png.png"
        },
        {
            "mimeType" : "image/png",
            "name" : "Bottle_Device_Normal.png",
            "uri" : "Bottle_Device_Normal_png.png"
        },
        {
            "mimeType" : "image/png",
            "name" : "Bottle_Device_BaseColor.png",
            "uri" : "Bottle_Device_BaseColor_png.png"
        },
        {
            "mimeType" : "image/png",
            "name" : "Bottle_Device_Metallic.png-Bottle_Device_Roughness.png",
            "uri" : "Bottle_Device_Metallic_png-Bottle_Device_Roughness_png.png"
        },
        {
            "mimeType" : "image/png",
            "name" : "Bottle_Lid_Emissive",
            "uri" : "Bottle_Lid_Emissive.png"
        },
        {
            "mimeType" : "image/png",
            "name" : "Bottle_Lid_Normal",
            "uri" : "Bottle_Lid_Normal.png"
        },
        {
            "mimeType" : "image/png",
            "name" : "Bottle_Lid_BaseColor",
            "uri" : "Bottle_Lid_BaseColor.png"
        },
        {
            "mimeType" : "image/png",
            "name" : "Bottle_Lid_Metallic-Bottle_Lid_Roughness",
            "uri" : "Bottle_Lid_Metallic-Bottle_Lid_Roughness.png"
        }
    ],
    "skins" : [
        {
            "inverseBindMatrices" : 18,
            "joints" : [
                4,
                1,
                0,
                2,
                3
            ],
            "name" : "Armature"
        }
    ],
    "accessors" : [
        {
            "bufferView" : 0,
            "componentType" : 5126,
            "count" : 2036,
            "max" : [
                0.04444385692477226,
                0.2869779169559479,
                0.04444385692477226
            ],
            "min" : [
                -0.04444385692477226,
                0,
                -0.04444385692477226
            ],
            "type" : "VEC3"
        },
        {
            "bufferView" : 1,
            "componentType" : 5126,
            "count" : 2036,
            "type" : "VEC3"
        },
        {
            "bufferView" : 2,
            "componentType" : 5126,
            "count" : 2036,
            "type" : "VEC2"
        },
        {
            "bufferView" : 3,
            "componentType" : 5121,
            "count" : 2036,
            "type" : "VEC4"
        },
        {
            "bufferView" : 4,
            "componentType" : 5126,
            "count" : 2036,
            "type" : "VEC4"
        },
        {
            "bufferView" : 5,
            "componentType" : 5123,
            "count" : 10368,
            "type" : "SCALAR"
        },
        {
            "bufferView" : 6,
            "componentType" : 5126,
            "count" : 1635,
            "max" : [
                0.03323962911963463,
                0.028663434088230133,
                0.03323962911963463
            ],
            "min" : [
                -0.03323962911963463,
                -0.0006665170076303184,
                -0.03323962911963463
            ],
            "type" : "VEC3"
        },
        {
            "bufferView" : 7,
            "componentType" : 5126,
            "count" : 1635,
            "type" : "VEC3"
        },
        {
            "bufferView" : 8,
            "componentType" : 5126,
            "count" : 1635,
            "type" : "VEC2"
        },
        {
            "bufferView" : 9,
            "componentType" : 5121,
            "count" : 1635,
            "type" : "VEC4"
        },
        {
            "bufferView" : 10,
            "componentType" : 5126,
            "count" : 1635,
            "type" : "VEC4"
        },
        {
            "bufferView" : 11,
            "componentType" : 5123,
            "count" : 7638,
            "type" : "SCALAR"
        },
        {
            "bufferView" : 12,
            "componentType" : 5126,
            "count" : 2933,
            "max" : [
                0.04019209370017052,
                0.3291827440261841,
                0.040191326290369034
            ],
            "min" : [
                -0.04019057750701904,
                0.27218353748321533,
                -0.040191326290369034
            ],
            "type" : "VEC3"
        },
        {
            "bufferView" : 13,
            "componentType" : 5126,
            "count" : 2933,
            "type" : "VEC3"
        },
        {
            "bufferView" : 14,
            "componentType" : 5126,
            "count" : 2933,
            "type" : "VEC2"
        },
        {
            "bufferView" : 15,
            "componentType" : 5121,
            "count" : 2933,
            "type" : "VEC4"
        },
        {
            "bufferView" : 16,
            "componentType" : 5126,
            "count" : 2933,
            "type" : "VEC4"
        },
        {
            "bufferView" : 17,
            "componentType" : 5123,
            "count" : 13308,
            "type" : "SCALAR"
        },
        {
            "bufferView" : 18,
            "componentType" : 5126,
            "count" : 5,
            "type" : "MAT4"
        },
        {
            "bufferView" : 19,
            "componentType" : 5126,
            "count" : 181,
            "max" : [
                7.5
            ],
            "min" : [
                0
            ],
            "type" : "SCALAR"
        },
        {
            "bufferView" : 20,
            "componentType" : 5126,
            "count" : 181,
            "type" : "VEC3"
        },
        {
            "bufferView" : 21,
            "componentType" : 5126,
            "count" : 181,
            "type" : "VEC4"
        },
        {
            "bufferView" : 22,
            "componentType" : 5126,
            "count" : 181,
            "type" : "VEC3"
        },
        {
            "bufferView" : 23,
            "componentType" : 5126,
            "count" : 181,
            "type" : "VEC3"
        },
        {
            "bufferView" : 24,
            "componentType" : 5126,
            "count" : 181,
            "type" : "VEC4"
        },
        {
            "bufferView" : 25,
            "componentType" : 5126,
            "count" : 181,
            "type" : "VEC3"
        },
        {
            "bufferView" : 26,
            "componentType" : 5126,
            "count" : 181,
            "type" : "VEC3"
        },
        {
            "bufferView" : 27,
            "componentType" : 5126,
            "count" : 181,
            "type" : "VEC4"
        },
        {
            "bufferView" : 28,
            "componentType" : 5126,
            "count" : 181,
            "type" : "VEC3"
        },
        {
            "bufferView" : 29,
            "componentType" : 5126,
            "count" : 181,
            "type" : "VEC3"
        },
        {
            "bufferView" : 30,
            "componentType" : 5126,
            "count" : 181,
            "type" : "VEC4"
        },
        {
            "bufferView" : 31,
            "componentType" : 5126,
            "count" : 181,
            "type" : "VEC3"
        },
        {
            "bufferView" : 32,
            "componentType" : 5126,
            "count" : 181,
            "type" : "VEC3"
        },
        {
            "bufferView" : 33,
            "componentType" : 5126,
            "count" : 181,
            "type" : "VEC4"
        },
        {
            "bufferView" : 34,
            "componentType" : 5126,
            "count" : 181,
            "type" : "VEC3"
        }
    ],
    "bufferViews" : [
        {
            "buffer" : 0,
            "byteLength" : 24432,
            "byteOffset" : 0
        },
        {
            "buffer" : 0,
            "byteLength" : 24432,
            "byteOffset" : 24432
        },
        {
            "buffer" : 0,
            "byteLength" : 16288,
            "byteOffset" : 48864
        },
        {
            "buffer" : 0,
            "byteLength" : 8144,
            "byteOffset" : 65152
        },
        {
            "buffer" : 0,
            "byteLength" : 32576,
            "byteOffset" : 73296
        },
        {
            "buffer" : 0,
            "byteLength" : 20736,
            "byteOffset" : 105872
        },
        {
            "buffer" : 0,
            "byteLength" : 19620,
            "byteOffset" : 126608
        },
        {
            "buffer" : 0,
            "byteLength" : 19620,
            "byteOffset" : 146228
        },
        {
            "buffer" : 0,
            "byteLength" : 13080,
            "byteOffset" : 165848
        },
        {
            "buffer" : 0,
            "byteLength" : 6540,
            "byteOffset" : 178928
        },
        {
            "buffer" : 0,
            "byteLength" : 26160,
            "byteOffset" : 185468
        },
        {
            "buffer" : 0,
            "byteLength" : 15276,
            "byteOffset" : 211628
        },
        {
            "buffer" : 0,
            "byteLength" : 35196,
            "byteOffset" : 226904
        },
        {
            "buffer" : 0,
            "byteLength" : 35196,
            "byteOffset" : 262100
        },
        {
            "buffer" : 0,
            "byteLength" : 23464,
            "byteOffset" : 297296
        },
        {
            "buffer" : 0,
            "byteLength" : 11732,
            "byteOffset" : 320760
        },
        {
            "buffer" : 0,
            "byteLength" : 46928,
            "byteOffset" : 332492
        },
        {
            "buffer" : 0,
            "byteLength" : 26616,
            "byteOffset" : 379420
        },
        {
            "buffer" : 0,
            "byteLength" : 320,
            "byteOffset" : 406036
        },
        {
            "buffer" : 0,
            "byteLength" : 724,
            "byteOffset" : 406356
        },
        {
            "buffer" : 0,
            "byteLength" : 2172,
            "byteOffset" : 407080
        },
        {
            "buffer" : 0,
            "byteLength" : 2896,
            "byteOffset" : 409252
        },
        {
            "buffer" : 0,
            "byteLength" : 2172,
            "byteOffset" : 412148
        },
        {
            "buffer" : 0,
            "byteLength" : 2172,
            "byteOffset" : 414320
        },
        {
            "buffer" : 0,
            "byteLength" : 2896,
            "byteOffset" : 416492
        },
        {
            "buffer" : 0,
            "byteLength" : 2172,
            "byteOffset" : 419388
        },
        {
            "buffer" : 0,
            "byteLength" : 2172,
            "byteOffset" : 421560
        },
        {
            "buffer" : 0,
            "byteLength" : 2896,
            "byteOffset" : 423732
        },
        {
            "buffer" : 0,
            "byteLength" : 2172,
            "byteOffset" : 426628
        },
        {
            "buffer" : 0,
            "byteLength" : 2172,
            "byteOffset" : 428800
        },
        {
            "buffer" : 0,
            "byteLength" : 2896,
            "byteOffset" : 430972
        },
        {
            "buffer" : 0,
            "byteLength" : 2172,
            "byteOffset" : 433868
        },
        {
            "buffer" : 0,
            "byteLength" : 2172,
            "byteOffset" : 436040
        },
        {
            "buffer" : 0,
            "byteLength" : 2896,
            "byteOffset" : 438212
        },
        {
            "buffer" : 0,
            "byteLength" : 2172,
            "byteOffset" : 441108
        }
    ],
    "samplers" : [
        {
            "magFilter" : 9729,
            "minFilter" : 9987
        }
    ],
    "buffers" : [
        {
            "byteLength" : 443280,
            "uri" : "Bottle_paused.bin"
        }
    ]
}
